<?xml version="1.0" encoding="UTF-8"?><svg id="Calque_2" xmlns="http://www.w3.org/2000/svg" xmlns:xlink="http://www.w3.org/1999/xlink" viewBox="0 0 48.5 44.5"><defs><style>.cls-1{fill:#e6a934;}.cls-2{fill:none;}.cls-3{fill:url(#Nouvelle_nuance_de_motif_5);}.cls-4{fill:url(#Nouvelle_nuance_de_motif_2);}.cls-5{fill:#7f2010;}</style><pattern id="Nouvelle_nuance_de_motif_5" x="0" y="0" width="53.61" height="53.61" patternTransform="translate(-1705.96 -133.54)" patternUnits="userSpaceOnUse" viewBox="0 0 53.61 53.61"><rect class="cls-2" width="53.61" height="53.61"/><rect class="cls-1" x="0" y="0" width="53.61" height="53.61"/></pattern><pattern id="Nouvelle_nuance_de_motif_2" x="0" y="0" width="53.61" height="53.61" patternTransform="translate(-1705.96 -133.54)" patternUnits="userSpaceOnUse" viewBox="0 0 53.61 53.61"><rect class="cls-2" y="0" width="53.61" height="53.61"/><rect class="cls-5" x="0" y="0" width="53.61" height="53.61"/></pattern></defs><g id="chat"><path class="cls-3" d="M24.25,2.25c12.13,0,22,8.08,22,18.01s-9.57,17.27-22.27,17.27c-3.76,0-6.8-.6-9.89-1.39l-10.52,4.54,3.01-9.61c-2.62-3.13-4.33-6.26-4.33-10.81C2.25,10.33,12.12,2.25,24.25,2.25Z"/><path class="cls-4" d="M23.98,37.53c12.7,0,22.27-7.42,22.27-17.27S36.38,2.25,24.25,2.25,2.25,10.33,2.25,20.26c0,4.55,1.71,7.68,4.33,10.81l-3.01,9.61,10.52-4.54c3.09.79,6.13,1.39,9.89,1.39ZM48.25,20.26c0,10.39-9.92,19.27-24.27,19.27-3.06,0-6.32-.4-9.73-1.28L.36,44.25l3.98-12.74C1.73,28.39.25,24.36.25,20.26.25,8.7,11.57.25,24.25.25s24,8.39,24,20.01Z"/></g></svg>