<?xml version="1.0" encoding="UTF-8"?><svg id="Calque_2" xmlns="http://www.w3.org/2000/svg" xmlns:xlink="http://www.w3.org/1999/xlink" viewBox="0 0 48.5 40.5"><defs><style>.cls-1{fill:#e6a934;}.cls-2{fill:none;}.cls-3{fill:url(#Nouvelle_nuance_de_motif_5);}.cls-4{fill:url(#Nouvelle_nuance_de_motif_2);}.cls-5{fill:#7f2010;}</style><pattern id="Nouvelle_nuance_de_motif_2" x="0" y="0" width="53.61" height="53.61" patternTransform="translate(-1878.24 -131.17)" patternUnits="userSpaceOnUse" viewBox="0 0 53.61 53.61"><rect class="cls-2" y="0" width="53.61" height="53.61"/><rect class="cls-5" x="0" y="0" width="53.61" height="53.61"/></pattern><pattern id="Nouvelle_nuance_de_motif_5" x="0" y="0" width="53.61" height="53.61" patternTransform="translate(-1878.24 -131.17)" patternUnits="userSpaceOnUse" viewBox="0 0 53.61 53.61"><rect class="cls-2" width="53.61" height="53.61"/><rect class="cls-1" x="0" y="0" width="53.61" height="53.61"/></pattern></defs><g id="folder_closed"><path class="cls-4" d="M21.42,8.25l-6-6H3.95c-.94,0-1.7.76-1.7,1.7v34.3h44V8.25h-24.83ZM16.25.25l6,6h26v34H.25V1.95C.25,1.01,1.01.25,1.95.25h14.3Z"/><path class="cls-3" d="M46.25,8.25v30H2.25V3.95c0-.94.76-1.7,1.7-1.7h11.47l6,6h24.83Z"/></g></svg>